<svg xmlns="http://www.w3.org/2000/svg" viewBox="0 0 214.1 44.97"><defs><clipPath id="clip-path"><path fill="none" d="M0 0h215.76v44.97H0z"/></clipPath><style>.cls-2{clip-path:url(#clip-path)}.cls-4{fill:#046992}</style></defs><g id="Layer_2" data-name="Layer 2"><g id="Layer_1-2" data-name="Layer 1"><path d="M213.4 0h-17.2a.7.7 0 00-.49.2.71.71 0 00-.21.5v27.62a.71.71 0 00.21.5.7.7 0 00.49.2h17.2a.68.68 0 00.49-.2.69.69 0 00.21-.5v-.73a.67.67 0 00-.21-.5.68.68 0 00-.49-.2h-15.8V15.24h14.66a.68.68 0 00.49-.2.71.71 0 00.21-.49v-.74a.72.72 0 00-.7-.7H197.6v-11h15.8a.68.68 0 00.49-.2.67.67 0 00.21-.5V.7a.69.69 0 00-.21-.5.68.68 0 00-.49-.2m-17.2 28.32zM179.89 0a14.51 14.51 0 00-4.45 28.32 14.25 14.25 0 004.45.7 14.52 14.52 0 0010.3-4.26.69.69 0 000-1l-.51-.56a.7.7 0 00-.5-.22.71.71 0 00-.5.21 12.4 12.4 0 11-8.8-21.09 12.33 12.33 0 018.72 3.55.69.69 0 00.49.2.74.74 0 00.48-.18l.51-.48a.73.73 0 00.23-.5.72.72 0 00-.21-.51A14.52 14.52 0 00179.89 0m8.77 24.19l.51-.47zM161.17 0h-.73a.7.7 0 00-.5.2.7.7 0 00-.2.5v24.88L140 .7l-.34-.44a.72.72 0 00-.55-.26h-1.21a.7.7 0 00-.5.2.7.7 0 00-.2.5v27.62a.68.68 0 00.7.7h.73a.68.68 0 00.7-.7V3.43l19.81 24.89.35.44a.7.7 0 00.51.24h1.14a.7.7 0 00.5-.2.72.72 0 00.2-.5V.7a.72.72 0 00-.2-.5.7.7 0 00-.5-.2M160 28.32l.13-.1zM120.55 0h-.78a.71.71 0 00-.63.4l-.14.3L106.25 28a.72.72 0 00-.06.29.75.75 0 00.1.38.71.71 0 00.59.32h.81a.72.72 0 00.64-.4l.13-.3 3.8-8.18h15.84l3.9 8.21.14.3a.7.7 0 00.63.4h.81a.7.7 0 00.59-.32.76.76 0 00.11-.38.59.59 0 00-.07-.29L121.32.7l-.14-.3a.71.71 0 00-.63-.4m-.41 1.56zM113.28 18l6.9-14.81 6.9 14.81zM95.94 0h-9.31a.7.7 0 00-.5.2.7.7 0 00-.2.5v27.62a.68.68 0 00.7.7h.7a.7.7 0 00.49-.2.72.72 0 00.2-.5V17.71h6.79l6.11 10.61.2.35a.71.71 0 00.61.35h.84a.71.71 0 00.61-.35.73.73 0 000-.7l-6-10.35A8.84 8.84 0 0099.38.7a8.74 8.74 0 00-3.44-.7M88 15.62V2.1h7.92a6.79 6.79 0 016.71 6.77 6.77 6.77 0 01-6.71 6.75zm13.71 12.7zM80.11 0h-.74a.7.7 0 00-.49.2.71.71 0 00-.21.5v16.76a9.5 9.5 0 01-16.19 6.63 9.36 9.36 0 01-2.78-6.67V.7a.7.7 0 00-.2-.5.7.7 0 00-.5-.2h-.73a.7.7 0 00-.5.2.7.7 0 00-.2.5v16.72a11.57 11.57 0 007.61 10.9 11.75 11.75 0 004 .7 11.63 11.63 0 0011.62-11.6V.7a.68.68 0 00-.69-.7M45.89 0a7.69 7.69 0 00-3.22.7 7.77 7.77 0 003.22 14.84 5.7 5.7 0 11-5.67 5.67.71.71 0 00-.21-.49.7.7 0 00-.49-.2h-.7a.68.68 0 00-.49.2.71.71 0 00-.21.49 7.82 7.82 0 004.56 7.11 7.73 7.73 0 006.43 0 7.77 7.77 0 00-3.22-14.84 5.68 5.68 0 115.68-5.67.68.68 0 00.69.69H53a.72.72 0 00.5-.2.7.7 0 00.2-.49A7.82 7.82 0 0049.1.7a7.68 7.68 0 00-3.21-.7M33.48 0h-.74a.7.7 0 00-.49.2.71.71 0 00-.25.5v24.88L12.31.7 12 .26a.7.7 0 00-.58-.26H10.2a.7.7 0 00-.49.2.71.71 0 00-.21.5v27.62a.71.71 0 00.21.5.7.7 0 00.49.2h.74a.7.7 0 00.49-.2.72.72 0 00.2-.5V3.43l19.82 24.89.34.44a.72.72 0 00.55.26h1.14a.68.68 0 00.49-.2.73.73 0 00.21-.5V.7A.71.71 0 0034 .2a.7.7 0 00-.49-.2m-1.17 28.32l.12-.1zM1.4 0H.7a.7.7 0 00-.5.2.7.7 0 00-.2.5v27.62a.7.7 0 00.2.5.7.7 0 00.5.2h.7a.7.7 0 00.49-.2.72.72 0 00.2-.5V.7a.7.7 0 00-.2-.5.7.7 0 00-.49-.2" fill="#79c4b2"/><path class="cls-4" d="M137.6 31.57v13.4h8.32v-2.88h-4.8v-2.46h4.25v-2.97h-4.25v-2.18h4.8v-2.91h-8.32zm19.58 0l-2.33 3.34-2.34-3.34h-4.28l4.46 6.41-4.91 6.99h4.29l2.78-3.93 2.77 3.93h4.29L157 37.98l4.46-6.41h-4.28z"/><g class="cls-2"><path class="cls-4" d="M167.48 38.38h2.18a1.92 1.92 0 100-3.84h-2.18zM164 31.57h5.64a4.92 4.92 0 01.08 9.84h-2.2V45H164z"/></g><path class="cls-4" d="M176.96 31.57v13.4h8.32v-2.88h-4.8v-2.46h4.25v-2.97h-4.25v-2.18h4.8v-2.91h-8.32z"/><g class="cls-2"><path class="cls-4" d="M191.86 38.38H194a1.92 1.92 0 100-3.84h-2.17zm4.25 6.62L194 41.41h-2.17V45h-3.52V31.57H194a4.92 4.92 0 013.34 8.54l2.82 4.89z"/></g><path class="cls-4" d="M202.14 31.56v3.5h3.48v9.91h3.52v-9.91h3.55v-3.5h-10.55z"/></g></g></svg>