<svg width="400" height="400" viewBox="0 0 400 400" xmlns="http://www.w3.org/2000/svg"><g fill-rule="evenodd"><path d="M76.132 59.313c-.182.307-.692.776-1.132 1.042-.775.468-.773.476.067.247.624-.169.92-.034 1.054.481.173.665.19.666.233.017.025-.385.329-.7.675-.7.373 0 .577-.272.5-.667-.17-.88-.978-1.122-1.397-.42m21.981.17c-.142.37-.046.739.215.826.26.087.472.413.472.724 0 .312.18.567.4.567.22 0 .4-.282.4-.627 0-.451.252-.563.9-.398l.9.229-.9-.463c-.495-.255-.9-.596-.9-.759 0-.656-1.242-.739-1.487-.099M70.8 61.307c0 .391-.428.705-1.1.806l-1.1.167 1.113.06c1.06.057 1.911-.849 1.336-1.424-.137-.137-.249.039-.249.391m33.2.085c0 .639 1.637 1.218 2.483.879.284-.114.022-.222-.583-.239-.697-.02-1.1-.252-1.1-.632 0-.33-.18-.6-.4-.6-.22 0-.4.267-.4.592m-41.954 8.279c-.028.657-.317 1.141-.746 1.253-.656.172-.655.186.013.23.811.052 1.243-.765.967-1.831-.126-.486-.202-.372-.234.348m51.291.098c.035.66.325 1.24.663 1.331.401.107.448.051.14-.17-.252-.181-.551-.78-.663-1.33-.176-.861-.195-.838-.14.169M60.4 74.784c0 .212-.379.738-.843 1.17-.463.432-.722.979-.576 1.215.388.629 1.419.527 1.419-.14 0-.314.315-.653.7-.753.644-.169.642-.187-.027-.23-.538-.034-.661-.254-.473-.846.14-.44.152-.8.027-.8s-.227.173-.227.384m54 .016c0 .22.18.4.4.4.678 0 .441.731-.3.924-.667.174-.667.185 0 .23.385.025.7.316.7.646 0 .686.345.749 1.188.216.324-.205.449-.512.279-.683-.171-.17-.488-.045-.705.279-.346.514-.383.513-.3-.012.134-.844-.443-2.4-.889-2.4-.205 0-.373.18-.373.4M59.02 98.368c-.125.202.011.607.302.9.292.292.752.892 1.023 1.332.473.767.483.763.247-.1-.179-.655-.075-.9.381-.9.345 0 .627-.18.627-.4 0-.22-.27-.4-.6-.4-.33 0-.6-.18-.6-.4 0-.502-1.074-.527-1.38-.032m56.18.032c0 .22-.27.4-.6.4-.33 0-.6.18-.6.4 0 .22.27.4.6.4.33 0 .6.18.6.4 0 .22-.18.4-.4.4-.22 0-.4.18-.4.4 0 .22.151.4.336.4.468 0 1.324-1.98 1.048-2.425-.124-.201.099-.261.495-.133.603.195.623.163.121-.198-.755-.543-1.2-.56-1.2-.044m-54.4 6c0 .22.27.4.6.4.38 0 .612.403.632 1.1.017.605.125.867.239.583.339-.846-.24-2.483-.879-2.483-.325 0-.592.18-.592.4m52.569.583c-.136.54-.154 1.215-.04 1.5.114.284.222.022.239-.583.018-.605.212-1.1.432-1.1s.4-.18.4-.4c0-.815-.793-.367-1.031.583M69.6 113.477c.55.112 1.149.411 1.33.663.221.308.277.261.17-.14-.091-.338-.671-.628-1.331-.663-1.007-.055-1.03-.036-.169.14m34.812.107c-.324.205-.449.512-.279.683.171.17.436.108.589-.138.153-.247.728-.532 1.278-.634l1-.186-1-.048c-.55-.027-1.265.119-1.588.323m-28.366.916c-.048.725-.846 1.008-.846.3 0-.22-.18-.4-.4-.4-.22 0-.4.168-.4.373 0 .446 1.556 1.023 2.4.889.525-.083.526-.046.012.3-.324.217-.449.534-.279.705.171.17.478.045.683-.279.527-.834.472-1.188-.187-1.188-.314 0-.653-.315-.753-.7-.174-.667-.185-.667-.23 0m22.754.067c0 .311-.209.636-.464.721-.346.115-.338.352.03.933.421.663.461.672.269.058-.124-.396-.061-.619.14-.495.445.276 2.425-.58 2.425-1.048 0-.185-.18-.336-.4-.336-.22 0-.4.18-.4.4 0 .22-.18.4-.4.4-.22 0-.4-.27-.4-.6 0-.33-.18-.6-.4-.6-.22 0-.4.255-.4.567m151.461 32.047c.11.288-.173.898-.63 1.355-.569.569-.658.831-.281.831.303 0 .658.54.79 1.2.22 1.099 1.06 1.733 1.06.8 0-.22-.18-.4-.4-.4-.22 0-.4-.18-.4-.4 0-.22.27-.4.6-.4.976 0 .82-3.049-.17-3.308-.522-.137-.705-.033-.569.322m-3.118.053c-.426.114-.585.449-.453.954.262 1.003.91 1.012.91.012 0-.421.225-.857.5-.968.603-.243-.039-.242-.957.002m5.296.101c-.402.254-.26.338.499.294.584-.034 1.062-.197 1.062-.362 0-.406-.872-.368-1.561.068m28.001-.089c.22 1.3.025 1.321-13.34 1.413l-13.3.092 13.4.208c13.151.204 13.404.193 13.616-.592.328-1.216 2.263-1.332 2.218-.133-.023.613.226.95.766 1.037.789.126.79.12.024-.488-.726-.576-.732-.649-.093-1.116.584-.428.393-.517-1.331-.621-1.107-.066-1.989.024-1.96.2M251.2 148c0 .78-.424 1.042-.906.561-.32-.321.099-1.361.549-1.361.196 0 .357.36.357.8m1.792 1.192c.032.435.182.915.333 1.067.938.937.197 1.378-1.978 1.177-2.478-.229-3.024-.494-2.14-1.04.45-.278.385-.346-.282-.295-1.028.077-.54 1.499.514 1.499.79 0 .595 1.694-.239 2.072-.481.218-.455.277.129.3.4.015.998-.242 1.328-.572.33-.33.407-.6.172-.6-.236 0-.429-.18-.429-.4 0-.22.27-.4.6-.4.33 0 .6.159.6.353 0 .195.405.481.9.636l.9.282-1 .324c-.55.179 7.37.298 17.6.267 10.23-.032 17.52-.149 16.2-.26-2.381-.201-2.388-.206-.866-.527.843-.178 2.013-.251 2.6-.161.586.089.868.092.626.006-.241-.085-.455-.706-.474-1.379-.043-1.5-.172-1.64-1.352-1.473l-.934.132.909.909.908.908-1.808-.169c-1.601-.149-1.809-.076-1.809.635 0 .677-.173.76-1.099.528-1.335-.335-1.183-.172-1.501-1.612-.202-.917-.163-1.058.168-.599.36.5.491.509.784.055.296-.461.389-.461.596 0 .134.3.149.155.032-.322-.179-.729-.067-.839.704-.695.511.095.654.052.323-.098-.326-.148-.834-.51-1.128-.804-.295-.295-.748-.522-1.008-.504-.331.022-.323.091.029.233.941.38.563 1.362-.453 1.178-.779-.141-.917-.033-.754.592.136.52-.006.765-.446.765-.356 0-.647-.178-.647-.394 0-.249-4.759-.434-12.9-.5l-12.9-.106-.128-.9c-.157-1.108-.761-1.204-.68-.108m-6.719 1.763c-.15.389.017.494.557.353.886-.232 1.044-.908.213-.908-.307 0-.653.25-.77.555m33.927.645c.684.294.699.348.1.372-1.017.041-.859.75.2.9.495.07-5.4.082-13.1.026-10.765-.078-14.03-.217-14.13-.6-.072-.274.06-.228.293.102.288.407.427.439.431.1.005-.388 2.905-.521 12.906-.592l12.9-.091-13-.217-13-.217 12.8-.063c7.04-.035 13.16.091 13.6.28m-34.656 2.043c-.37.234-.128.347.756.351.715.003 1.3-.063 1.3-.147 0-.364-1.559-.519-2.056-.204M224.4 156.4c0 .954.614 1.061.957.167.343-.894.316-.967-.357-.967-.333 0-.6.356-.6.8m-3.462 1.561c-.039.621.051.78.256.449.174-.282.503-.397.731-.256.228.141.497-.061.598-.449.174-.666.187-.666.231-.005.063.957.846.891.846-.072 0-1.275-2.58-.952-2.662.333m90.126.31c.255.182.55.871.656 1.53.177 1.098.188 1.084.136-.17-.034-.843-.287-1.431-.656-1.531-.405-.109-.449-.053-.136.171m-88.954.836c-.143.381-.516.885-.829 1.119-.797.598-.441 1.966.523 2.013.611.03.633.001.096-.128-.385-.091-.7-.424-.7-.739 0-.704.667-.757.912-.072.098.275.333.355.522.178.188-.177.084-.482-.233-.677-.476-.295-.421-.49.32-1.133.754-.653.797-.814.272-1.015-.381-.147-.724.03-.883.454m90.29.093c0 .44.225.803.5.806.366.005.354.099-.045.352-.461.291-.461.379 0 .563.447.179.437.295-.055.649-.414.297-.464.523-.16.73.732.499 1.186 1.815 1.172 3.4-.006.825.123 1.5.288 1.5.165 0 .3.27.3.6 0 .33.225.603.5.606.337.004.304.14-.1.417-.533.365-.533.403 0 .346 1.389-.148 2.002.073 2.032.731.018.418.112.499.233.2.111-.275.442-.5.735-.5s.614.225.712.5c.098.275.319.369.49.21.465-.433-.643-1.58-1.287-1.333-.306.118-.447.036-.312-.182.137-.221-.207-.395-.779-.395-.861 0-1.024-.183-1.024-1.151 0-.738-.312-1.359-.868-1.728-1.254-.832-.594-1.583 1.202-1.366.809.097 1.917-.061 2.461-.352l.989-.53-1.053.064c-.58.034-.971.198-.869.363.259.419-.177.374-1.088-.114-.538-.288-1.02-.283-1.58.017-.443.237-.763.289-.712.114.183-.621-.998-5.317-1.337-5.317-.19 0-.345.36-.345.8m-81.9-.118c-.495.096-.9.442-.9.769 0 .349-.192.478-.462.311-.28-.174-.353-.11-.186.161.184.296.594.326 1.221.087.52-.197 1.063-.241 1.207-.097.144.145.15-.031.012-.39-.166-.432-.003-.717.479-.842.911-.235-.146-.235-1.371.001m-5.942 1.205c.596.152.641.266.212.532-.301.186-.426.459-.277.607.148.148.543-.005.878-.34.639-.639.088-1.158-1.104-1.04-.257.026-.126.134.291.241m7.742.389c-.385.1-.703.394-.706.653-.004.28-.158.232-.378-.117-.205-.324-.505-.456-.668-.294-.162.163-.095.495.149.739.594.594 2.503.086 2.503-.665 0-.325-.045-.571-.1-.546-.055.026-.415.129-.8.23m77.4 0c.385.1.7.491.7.868 0 .406.309.685.759.685.717 0 .711-.052-.1-.908-.472-.499-1.129-.889-1.459-.868-.425.028-.395.093.1.223m-4.494.624c-.005.538.341.707 1.494.73.825.016 1.905.105 2.4.197.495.092.9-.011.9-.23 0-.218-.72-.397-1.6-.397-1.01 0-1.602-.184-1.606-.5-.004-.334-.137-.301-.4.1-.35.533-.438.533-.788 0-.337-.514-.395-.499-.4.1m9.694.565c-.566.228-.688 1.335-.147 1.335.195 0 .448-.36.563-.8.115-.44.181-.786.147-.768-.035.017-.288.122-.563.233m-96.8 2.358c-.589.64-.638.977-.143.977.341 0 .98-1.204.752-1.417-.06-.056-.334.142-.609.44m1.1.577c0 .22.27.4.6.4.33 0 .6-.18.6-.4 0-.22-.27-.4-.6-.4-.33 0-.6.18-.6.4m101.2.157c0 .307-.262.658-.583.781-.531.204-.588 1.19-.249 4.362.018.165.257.306.532.313.974.025 2.149 1.186 1.565 1.547-.426.263-.406.377.101.572.446.171.634.01.634-.545 0-.433.27-.787.6-.787.33 0 .6.27.6.6 0 .33-.193.6-.429.6-.235 0-.158.27.172.6.887.887 1.058.744.843-.7-.107-.715-.087-1.075.043-.8.131.275.493.5.804.5.312 0 .58-.225.595-.5.016-.275.151-.192.3.185.192.484.445.579.861.322.875-.541.351-.813-1.873-.972-2.852-.204-5.492-1.392-3.216-1.447.277-.007.188-.194-.2-.42-.385-.224-.7-.674-.7-1 0-.326-.27-.697-.6-.823-.33-.127-.6-.481-.6-.788 0-.693.673-.735.902-.057.092.275.185-.085.206-.8.021-.715-.039-1.3-.135-1.3-.095 0-.173.251-.173.557m-101.465 1.267c-.303.792-.014 1.058.808.743.825-.317.844-.81.042-1.117a.638.638 0 0 0-.85.374m98.265-.011c0 .323-.315.59-.7.593-.597.005-.612.062-.1.387.382.243.648.241.733-.006.074-.213.389-.387.7-.387.75 0 .727-.653-.033-.945-.365-.14-.6 0-.6.358M214.171 168c0 .456.236.619.715.493.393-.102.714-.324.714-.493 0-.169-.321-.391-.714-.493-.479-.126-.715.037-.715.493m3.826-.383c-.529.339-.529.427 0 .766.733.471 1.566-.18.98-.766-.245-.245-.6-.245-.98 0m-1.497 1.048c-.904.365-.523.802.7.802 1.294 0 1.591-.431.567-.824-.348-.134-.663-.229-.7-.211-.037.017-.292.122-.567.233m-3.566.853c-.477.071-.974.408-1.105.75-.171.448-.06.553.399.377.351-.135 1.253-.245 2.005-.245.944 0 1.367-.184 1.367-.596 0-.576-.421-.621-2.666-.286M328 171.757c0 .307.25.653.555.77.389.15.494-.017.353-.557-.232-.886-.908-1.044-.908-.213m-5.994 2.719c.012 1.005.781 1.832.788.848.003-.482-.174-.988-.394-1.124-.22-.136-.397-.012-.394.276m.649 2.524c-.273.712.082 1.8.588 1.8.534 0 .43-.7-.143-.963-.275-.126-.095-.129.4-.006 1.035.256 1.148-.04.329-.86-.721-.72-.888-.716-1.174.029m6.945 10.4c0 .33.27.6.6.6.33 0 .6-.27.6-.6 0-.33-.27-.6-.6-.6-.33 0-.6.27-.6.6m-96.011 9.415c-.501.317-.49.374.078.379.366.003.757.231.868.506.161.4.208.4.233 0 .018-.275.314-.5.659-.5.457 0 .554.23.357.85-.18.566-.124.76.167.58.707-.436.376-2.065-.432-2.126-.395-.03-.722.16-.725.421-.005.364-.078.363-.311-.004-.2-.316-.505-.352-.894-.106m3.556-.057c.461.291.461.384 0 .594-.46.209-.46.287 0 .496.461.21.461.303 0 .594-.399.253-.411.347-.045.352.275.003.5.377.5.83 0 .453.18.712.401.575.245-.151.264-.511.048-.923-.193-.372-.296-1.171-.228-1.776.092-.815-.05-1.098-.548-1.094-.533.005-.559.078-.128.352m25.555-.084c.275.106.5.437.5.736 0 .298.18.654.4.79.223.138.4-.167.4-.691 0-.694-.235-.95-.9-.983-.495-.025-.675.042-.4.148m3.888.771c.334.335 1.149.624 1.81.643.89.025 1.202.226 1.202.773 0 .406.24.739.533.739.968 0 .672-2.396-.3-2.423a40.356 40.356 0 0 1-2.343-.182c-1.352-.142-1.447-.095-.902.45m-38.988.101c0 .264-.405.643-.9.842-.609.244-.69.369-.249.387.74.028 1.796-1.061 1.406-1.451-.141-.142-.257-.042-.257.222m10.8.054c0 .22.27.4.6.4.33 0 .6-.18.6-.4 0-.22-.27-.4-.6-.4-.33 0-.6.18-.6.4m24 1.6c0 .73.208 1.2.531 1.2.362 0 .475-.381.354-1.2-.097-.66-.335-1.2-.53-1.2s-.355.54-.355 1.2m2.7-.518c.495.096.9.341.9.546 0 .205.27.372.6.372.33 0 .6-.159.6-.353 0-.388-1.452-.864-2.4-.787-.33.027-.195.127.3.222m-31.9 2.118c0 .22.27.4.6.4.33 0 .6-.18.6-.4 0-.22-.27-.4-.6-.4-.33 0-.6.18-.6.4m-9.818.94c-.856.942-1.039 1.457-.434 1.224.325-.124.698-.508.83-.852.308-.801.138-.959-.396-.372m-1.698 2.875c-.283.322-.958.585-1.5.585-.608 0-.984.229-.984.6 0 .33.27.6.6.6.33 0 .6-.18.6-.4 0-.22.283-.4.629-.4.606 0 1.771-.902 1.771-1.371 0-.414-.591-.209-1.116.386M216 206.2c0 .33-.18.6-.4.6-.22 0-.4.27-.4.6 0 .33-.306.6-.68.6-.474 0-.553.127-.261.419.966.966 3.114-.919 2.643-2.319-.236-.7-.902-.626-.902.1m1.6-.243c0 .197.27.461.6.588.365.14.6 0 .6-.358a.595.595 0 0 0-.6-.587c-.33 0-.6.161-.6.357m60.006-.053c.013.626.722 1.387 1.157 1.242.276-.092.136-.426-.354-.845-.445-.381-.806-.56-.803-.397m-59.2 1.572c-.009.687.528.919 1.525.658 1.091-.285 1.139-.934.069-.934-.44 0-.803.225-.806.5-.004.333-.136.3-.394-.1-.233-.361-.39-.41-.394-.124m-2.733 3.806c-.082 1.069-.028 1.13.518.584.746-.745.778-1.315.091-1.579-.343-.132-.549.205-.609.995m-2.078.418c-.003.495-.096 1.35-.206 1.9-.127.633.011.486.375-.4.698-1.699.767-2.4.236-2.4-.22 0-.402.405-.405.9m64.405.7c0 .44.18.8.4.8.22 0 .4-.36.4-.8 0-.44-.18-.8-.4-.8-.22 0-.4.36-.4.8m-6.912.286c.22.574 2.512.718 2.512.158 0-.196-.61-.428-1.355-.515-.984-.115-1.3-.017-1.157.357M284.8 218c0 .22.278.4.618.4.339 0 .588.225.552.5-.143 1.102.045 3.219.266 2.997.82-.819.419-4.297-.495-4.297-.517 0-.941.18-.941.4m-79.6 6.948c0 .658.718 1.267 1.074.911.122-.121-.07-.512-.426-.869-.56-.559-.648-.565-.648-.042m79.6-.181c0 .201.225.457.5.568.4.161.4.208 0 .233-.275.018-.5.373-.5.789 0 .417.225.844.5.949.445.171.54-.572.331-2.606-.045-.433-.831-.37-.831.067m-1.208 3.238c-.313.193-.429.491-.259.662.171.17.459.07.64-.224.274-.443.367-.441.547.012.137.344.228.369.248.069.046-.683-.513-.929-1.176-.519m-3.992.595c0 .33.18.6.4.6.22 0 .4-.27.4-.6 0-.33-.18-.6-.4-.6-.22 0-.4.27-.4.6m6.237 1.9c.379 6.523.427 9.22.147 8.3-.199-.654-.318-.758-.344-.3-.049.851-.84.946-.84.1 0-.33.18-.6.4-.6.242 0 .4-1.733.4-4.4 0-5.949-.774-5.861-.88.1l-.08 4.5-.257-4.4-.258-4.4.037 4.9c.036 4.594-.359 6.158-1.109 4.4-.117-.275-.129.085-.027.8.178 1.247-.367 1.838-.738.8-.098-.275-.333-.355-.522-.178-.188.177-.132.452.126.611.257.159.662.735.899 1.278.423.968.428.969.247.049-.148-.755-.04-.902.549-.748.577.151.71-.011.626-.77-.085-.774 1.331-1.12 1.606-.392.01.027.235.553.5 1.169.265.615.481 2.01.481 3.1 0 1.089.18 1.981.4 1.981.22 0 .4-.99.4-2.2 0-1.21-.18-2.2-.4-2.2-.22 0-.4-.9-.4-2s.18-2 .4-2c.243 0 .4-1.8.4-4.6 0-3.822-.101-4.6-.6-4.6-.33 0-.6-.18-.6-.4 0-.22-.159-.4-.354-.4-.195 0-.289 1.125-.209 2.5m-79.292-.596c.034.435-.207.675-.645.64-.385-.03-.7.201-.7.515 0 .429.181.472.739.174.506-.271.881-.253 1.193.059.25.25.593.307.761.127.169-.181.082-.409-.193-.507-.275-.098-.5-.423-.5-.722 0-.298-.16-.641-.355-.762-.195-.121-.33.094-.3.476m74.741 3.563c-.047 2.457-.195 4.752-.329 5.1-.174.454-.004.633.6.633.464 0 .843-.18.843-.4 0-.22-.174-.4-.387-.4-.221 0-.442-2.023-.514-4.7l-.127-4.7-.086 4.467M204.8 233.2c0 .587.267.8 1 .8.55 0 1-.18 1-.4 0-.22-.27-.4-.6-.4-.33 0-.6-.18-.6-.4 0-.22-.18-.4-.4-.4-.22 0-.4.36-.4.8m2.4.437c0 .501-.321.922-.8 1.047-.903.236-1.049.749-.3 1.051.275.111.14.216-.3.234-.757.03-.801.316-.82 5.331-.013 3.636.06 4.546.233 2.9.139-1.32.283-1.995.32-1.5.037.495.247.9.467.9.22 0 .4.63.4 1.4 0 1.289.095 1.4 1.2 1.4 1.021 0 1.2-.153 1.2-1.024 0-.563-.172-.917-.383-.787-.21.13-.283.546-.162.924.188.585.156.598-.217.087-.389-.533-.483-.533-.844 0-.289.428-.351-.002-.215-1.5.172-1.885.111-2.1-.594-2.1-.432 0-.785-.18-.785-.4 0-.22.18-.4.4-.4.22 0 .4-.251.4-.557 0-.509.807-1.043 1.578-1.043.171 0 .264.438.205.973-.074.673.058.91.426.768.343-.132.492.056.419.527-.062.403-.036.507.059.232.253-.736.913-.608.913.176 0 .591.076.579.6-.1.565-.731.631-.736 1.139-.084.471.606.547.408.612-1.579.041-1.25-.058-2.14-.219-1.978-.161.161-.255.872-.207 1.579.076 1.128-.036 1.286-.914 1.286-.799 0-.963-.162-.81-.8.105-.44.088-.575-.038-.3-.514 1.12-1.378.525-1.162-.8.151-.918.1-1.127-.172-.712-.715 1.091-.959.033-.35-1.516.542-1.38.539-1.685-.032-3.004-.707-1.633-1.247-1.906-1.247-.631m1.646-.57c-.083.843.429 1.733.997 1.733.306 0 .58.18.607.4.028.22.073.623.1.895.028.272.41.54.85.596l.8.102-.8-.368c-.44-.203-.562-.381-.271-.397.385-.02.345-.212-.149-.706-.637-.636-.633-.696.071-.993.706-.298.703-.314-.051-.276-1.444.071-1.739-.044-1.924-.753-.101-.385-.204-.49-.23-.233m-.33 2.133c.115.44.046.8-.153.8-.2 0-.363.449-.363.997 0 .818-.162.968-.9.83a21.898 21.898 0 0 0-1.2-.197c-.165-.017-.3-.308-.3-.648 0-.366.285-.569.7-.5.428.072.653-.099.58-.442-.327-1.528 1.245-2.336 1.636-.84m1.617 2.716c0 .978.175 1.284.734 1.284.403 0 .733-.18.733-.4 0-.22-.152-.4-.339-.4-.186 0-.516-.398-.733-.884-.361-.809-.395-.775-.395.4m-3.733.884c0 .44-.18.8-.4.8-.22 0-.4-.36-.4-.8 0-.44.18-.8.4-.8.22 0 .4.36.4.8m73.2 1.2c0 1.01.184 1.602.5 1.606.339.004.31.126-.088.378-.324.205-.457.504-.296.665.161.161.548-.054.86-.478.529-.72.585-.724.838-.071.324.835.986.931.986.143 0-.644-1.084-1.162-1.671-.799-.235.145-.367-.223-.321-.899.115-1.713.033-2.145-.408-2.145-.22 0-.4.72-.4 1.6m5.2 2.6c0 .33.18.6.4.6.576 0 .494 1.096-.1 1.335-.4.161-.4.208 0 .233.589.038.686 1.232.1 1.232-.22 0-.403-.225-.406-.5-.004-.337-.14-.304-.417.1-.342.5-.391.474-.294-.159.064-.417-.108-.837-.383-.933-.316-.11-.5.205-.5.859 0 .914.161 1.033 1.4 1.033 1.207 0 1.4-.131 1.4-.95 0-.522.113-1.512.25-2.2.217-1.086.139-1.25-.6-1.25-.489 0-.85.255-.85.6" fill="#e9e9e9"/><path d="M4.8 2.4v2.4H0V396h4.8v4H396v-4h4V4.8h-4V0H4.8v2.4m84.211 57.868c.285.285.579.697.653.917.488 1.434 9.136 1.637 9.136.215 0-.55-.18-1-.4-1-.502 0-.527-1.074-.032-1.38.202-.125.607.011.9.302.292.292.892.752 1.332 1.023.767.473.763.483-.1.247-.764-.209-.9-.09-.9.781 0 1.568 1.974 1.498 2.06-.073l.06-1.1.167 1.1c.209 1.381 2.113 1.651 2.113.3 0-.44.18-.8.4-.8.22 0 .4.27.4.6 0 .373.416.623 1.1.66l1.1.06-1.1.167c-2.239.339-1.361 7.801.973 8.268 3.468.693 6.324.311 6.381-.855.054-1.081.058-1.083.241-.1.102.55.393 1.132.645 1.294.296.189.21.296-.24.3-1.319.011-.933 2.393.4 2.466l1.1.06-1.1.167c-1.534.232-1.623 2.113-.1 2.113.55 0 1-.18 1-.4 0-.22-.18-.4-.4-.4-.22 0-.4-.18-.4-.4 0-.22.168-.4.373-.4.446 0 1.023 1.556.889 2.4-.083.525-.046.526.3.012.217-.324.534-.449.705-.279.17.171.045.478-.279.683-.843.533-1.188.47-1.188-.216 0-.373-.378-.6-1-.6-1.153 0-1.399 2.989-.594 7.231.499 2.632.669 2.808 2.959 3.066 1.009.114 1.835.364 1.835.555 0 .191.675.374 1.5.406 1.029.04.59.183-1.4.455-1.595.219-2.9.553-2.9.742 0 .19-.274.345-.61.345-.92 0-1.432 1.799-1.682 5.9l-.226 3.7h1.026c.564 0 1.095-.209 1.18-.464.115-.346.352-.338.933.03.663.421.672.461.058.269-.396-.124-.619-.061-.495.14.276.445-.58 2.425-1.048 2.425-.185 0-.336-.18-.336-.4 0-.22.18-.4.4-.4.22 0 .4-.18.4-.4 0-.22-.45-.4-1-.4-1.545 0-1.449 1.976.1 2.06l1.1.06-1.1.167c-1.222.185-1.678 2.113-.5 2.113.33 0 .6.18.6.4 0 .22-.18.4-.4.4-.22 0-.427.495-.46 1.1l-.06 1.1-.171-1.147-.171-1.148-3.572.171c-4.412.211-4.479.279-4.692 4.721l-.172 3.603 1.149.06 1.149.06-1.1.167c-.605.091-1.1.334-1.1.54 0 .205-.18.373-.4.373-.22 0-.4-.27-.4-.6 0-1.21-1.993-.726-2.06.5l-.06 1.1-.167-1.1c-.232-1.534-2.113-1.623-2.113-.1 0 .55.18 1 .4 1 .22 0 .4-.18.4-.4 0-.22.18-.4.4-.4.22 0 .4.151.4.336 0 .468-1.98 1.324-2.425 1.048-.201-.124-.264.099-.14.495.192.614.152.605-.269-.058-.368-.581-.376-.818-.03-.933.255-.085.464-.616.464-1.18v-1.026l-3.7.226c-4.101.25-5.9.762-5.9 1.682 0 .336-.155.61-.345.61-.189 0-.523 1.305-.742 2.9-.272 1.99-.415 2.429-.455 1.4-.032-.825-.215-1.5-.406-1.5-.191 0-.441-.826-.555-1.835-.258-2.29-.434-2.46-3.066-2.959-4.242-.805-7.231-.559-7.231.594 0 .622.227 1 .6 1 .686 0 .749.345.216 1.188-.205.324-.512.449-.683.279-.17-.171-.045-.488.279-.705.514-.346.513-.383-.012-.3-.844.134-2.4-.443-2.4-.889 0-.205.18-.373.4-.373.22 0 .4.18.4.4 0 .22.18.4.4.4.22 0 .4-.45.4-1 0-1.545-1.976-1.449-2.06.1l-.06 1.1-.167-1.1c-.201-1.329-2.508-1.695-2.519-.4-.004.45-.111.536-.3.24-.162-.252-.744-.543-1.294-.645-.983-.183-.981-.187.1-.241 1.166-.057 1.548-2.913.855-6.381-.466-2.329-8.092-3.233-8.215-.973l-.06 1.1-.167-1.1c-.092-.611-.421-1.1-.74-1.1-.315 0-.573-.18-.573-.4 0-.22.36-.4.8-.4 1.378 0 1.089-1.984-.3-2.06l-1.1-.06 1.1-.167c1.554-.235 1.619-2.113.073-2.113-.871 0-.99.136-.781.9.236.863.226.867-.247.1-.271-.44-.731-1.04-1.023-1.332-.291-.293-.427-.698-.302-.9.306-.495 1.38-.47 1.38.032 0 .22.45.4 1 .4 1.422 0 1.219-8.648-.215-9.136-.22-.074-.632-.368-.917-.653-.285-.285-1.857-.695-3.493-.911-2.316-.306-2.598-.405-1.275-.446.935-.03 1.7-.234 1.7-.454s.532-.4 1.181-.4c3.078 0 3.539-.77 3.894-6.5l.241-3.9h-1.058c-.674 0-1.058.218-1.058.6 0 .706-1.026.805-1.438.139-.156-.253-.019-.658.306-.9.325-.241.811-.799 1.08-1.239.469-.766.48-.762.244.1-.209.764-.09.9.781.9 1.568 0 1.498-1.974-.073-2.06l-1.1-.06 1.1-.167c1.485-.224 1.662-2.484.2-2.559-.677-.035-.727-.092-.2-.23.424-.111.724-.604.76-1.253l.06-1.071.17 1.14.171 1.14 3.298-.14c4.421-.188 4.794-.562 4.982-5.011l.141-3.329-1.141-.06-1.141-.06 1.075-.164c.592-.09 1.156-.468 1.254-.84.126-.48.192-.414.225.224.076 1.481 2.425 1.294 2.506-.2l.06-1.1.167 1.1c.235 1.554 2.113 1.619 2.113.073 0-.871-.136-.99-.9-.781-.862.236-.866.225-.1-.244.44-.269.998-.755 1.239-1.08.242-.325.647-.462.9-.306.666.412.567 1.438-.139 1.438-.382 0-.6.384-.6 1.058v1.058l3.9-.241c5.73-.355 6.5-.816 6.5-3.894 0-.649.18-1.181.4-1.181.22 0 .424-.765.454-1.7.041-1.323.14-1.041.446 1.275.216 1.636.626 3.208.911 3.493M251.6 148.047c0 1.114-.17 1.553-.6 1.553-.33 0-.6.18-.6.4 0 .22.18.4.4.4.22 0 .4.18.4.4 0 .933-.84.299-1.06-.8-.132-.66-.487-1.2-.79-1.2-.377 0-.288-.262.281-.831.457-.457.74-1.067.63-1.355-.136-.355.047-.459.569-.322.593.155.77.558.77 1.755m-3.5-1.382c-.275.111-.5.547-.5.968 0 1-.648.991-.91-.012-.132-.505.027-.84.453-.954.918-.244 1.56-.245.957-.002m5.9.035c0 .165-.478.328-1.062.362-.759.044-.901-.04-.499-.294.689-.436 1.561-.474 1.561-.068m29.731.4c-.639.467-.633.54.093 1.116.766.608.765.614-.024.488-.54-.087-.789-.424-.766-1.037.045-1.199-1.89-1.083-2.218.133-.212.785-.465.796-13.616.592l-13.4-.208 13.3-.092c13.365-.092 13.56-.113 13.34-1.413-.029-.176.853-.266 1.96-.2 1.724.104 1.915.193 1.331.621m-33.461.661c-.225.588.033 1.039.597 1.039.183 0 .333-.36.333-.8 0-.917-.609-1.074-.93-.239m3.402 1.539l.128.9 12.9.106c8.141.066 12.9.251 12.9.5 0 .216.291.394.647.394.44 0 .582-.245.446-.765-.163-.625-.025-.733.754-.592 1.016.184 1.394-.798.453-1.178-.352-.142-.36-.211-.029-.233.26-.018.713.209 1.008.504.294.294.802.656 1.128.804.331.15.188.193-.323.098-.771-.144-.883-.034-.704.695.117.477.102.622-.032.322-.207-.461-.3-.461-.596 0-.293.454-.425.445-.787-.055-.343-.474-.386-.39-.205.4.126.55.232 1.121.235 1.268.003.148.59.416 1.305.595 1.243.313 1.204.338-.9.578-1.21.138-.265.165 2.1.061 3.764-.166 4.3-.109 4.3.454 0 .354.156.644.346.644.19 0 .458.825.596 1.833.273 1.991 1.922 4.167 3.157 4.167.385 0 .701.161.701.358 0 .498 2.646.876 7.7 1.101 4.281.19 4.3.187 4.306-.734.005-.747.082-.81.4-.325.35.533.438.533.788 0 .263-.401.396-.434.4-.1.004.314.589.5 1.573.5.879 0 1.655.219 1.768.5.111.275.216.095.233-.4.021-.591-.208-.911-.668-.932-.444-.02-.511-.107-.184-.238.284-.114.977.254 1.541.818.95.95 1.074.978 1.681.371.523-.523.546-.691.113-.835-.454-.152-.454-.237.004-.526.399-.253.411-.347.045-.352-.275-.003-.5-.366-.5-.806 0-.44.155-.8.345-.8.339 0 1.52 4.696 1.337 5.317-.051.175.269.123.712-.114.56-.3 1.042-.305 1.58-.017.911.488 1.347.533 1.088.114-.102-.165.289-.329.869-.363l1.053-.064-.989.53c-.544.291-1.652.449-2.461.352-1.796-.217-2.456.534-1.202 1.366.556.369.868.99.868 1.728 0 .968.163 1.151 1.024 1.151.671 0 .925.159.738.462-.181.292-.11.353.194.165.626-.387 1.74.547 1.475 1.237-.113.295-.032.536.182.536.213 0 .387-.27.387-.6 0-.549.488-.784 1.33-.637.181.031.22-.12.087-.336-.133-.215-.507-.291-.83-.167-.323.124-.608.071-.633-.117-.296-2.227-.261-2.798.191-3.143.289-.22.625-.67.746-1 .121-.33.211.03.2.8-.012.77-.097 1.175-.189.9-.229-.678-.902-.636-.902.057 0 .307.27.661.6.788.33.126.6.497.6.823 0 .326.315.776.7 1 .388.226.477.413.2.42-2.276.055.364 1.243 3.216 1.447 2.224.159 2.748.431 1.873.972-.416.257-.669.162-.861-.322-.149-.377-.284-.46-.3-.185-.015.275-.283.5-.595.5-.311 0-.673-.225-.804-.5-.13-.275-.15.085-.043.8.215 1.444.044 1.587-.843.7-.33-.33-.407-.6-.172-.6.236 0 .429-.27.429-.6 0-.33-.27-.6-.6-.6-.33 0-.6.354-.6.787 0 .536-.192.714-.6.558-.44-.169-.6.052-.6.83 0 .788.18 1.03.7.943.494-.083.726.176.79.882.049.55-.011.775-.134.5-.401-.9-1.356-.548-1.356.5 0 .993.771 1.457.832.5.022-.355.094-.342.248.045.173.435.281.442.532.035.248-.401.451-.374.952.127.942.942.8 1.068-.964.856l-1.6-.193v2.415c0 1.328.156 2.415.347 2.415.191 0 .447.742.569 1.648.275 2.056.58 2.361 2.636 2.636.906.122 1.648.378 1.648.569 0 .191.72.347 1.6.347.88 0 1.6-.18 1.6-.4 0-.22.27-.4.6-.4.33 0 .6.27.6.6 0 .33-.27.6-.6.6-.33 0-.6.27-.6.6 0 .727.654.796.935.1.121-.299.215-.218.233.2.018.385-.238.7-.568.7-.515 0-.6 1.244-.6 8.8 0 5.6.145 8.8.4 8.8.22 0 .4.532.4 1.181 0 2.831.789 3.421 5.19 3.881l2.41.252V338h-50.4v-43.2c0-34.276-.103-43.207-.5-43.232-.4-.025-.4-.072 0-.233.275-.111.5-.712.5-1.335s-.225-1.238-.5-1.367c-.4-.186-.4-.28 0-.466.593-.277.677-1.767.1-1.767-.22 0-.4-.99-.4-2.2 0-1.21.18-2.2.4-2.2.22 0 .4-.9.4-2s-.18-2-.4-2c-.22 0-.412.945-.427 2.1-.027 2.119-.07 2.122-.952.05-.307-.724-1.693-.386-1.608.392.084.759-.049.921-.626.77-.589-.154-.697-.007-.549.748.181.92.176.919-.247-.049-.237-.543-.642-1.119-.899-1.278-.258-.159-.314-.434-.126-.611.189-.177.424-.097.522.178.371 1.038.916.447.738-.8-.102-.715-.09-1.075.027-.8.75 1.758 1.145.194 1.109-4.4l-.037-4.9.258 4.4.257 4.4.08-4.5c.106-5.961.88-6.049.88-.1 0 2.667-.158 4.4-.4 4.4-.22 0-.4.27-.4.6 0 .846.791.751.84-.1.026-.458.145-.354.344.3.28.92.232-1.777-.147-8.3-.08-1.375.014-2.5.209-2.5.195 0 .354.18.354.4 0 .22.27.4.6.4.33 0 .6-.27.6-.6 0-.33-.27-.6-.6-.6-.33 0-.586-.315-.568-.7.018-.418.112-.499.233-.2.281.696.935.627.935-.1 0-.33-.27-.6-.6-.6-.33 0-.6-.174-.6-.387 0-.214.27-.284.6-.158.38.146.6-.005.6-.412 0-.354-.315-.664-.7-.689-.667-.045-.667-.056 0-.23.385-.1.7-.439.7-.753 0-.703-1.057-.759-1.335-.071-.121.299-.215.218-.233-.2-.02-.444.261-.7.768-.7.444 0 .8-.267.8-.6 0-.725-1.051-.803-1.335-.1-.193.479-.429-1.763-.295-2.8.036-.275-.213-.5-.552-.5-.34 0-.618-.18-.618-.4 0-.22.63-.4 1.4-.4h1.4v-3.8c0-2.267-.161-3.8-.4-3.8-.22 0-.4-.532-.4-1.181 0-2.831-.789-3.421-5.19-3.881l-2.41-.252v-2.493c0-5.268-.544-5.786-6.073-5.791l-2.673-.002.146 1.6c.109 1.19 0 1.6-.427 1.6-.315 0-.573-.333-.573-.739 0-.547-.312-.748-1.202-.773-1.347-.039-2.738-1.084-1.894-1.424.292-.118.208-.214-.204-.232-.385-.018-.7.148-.7.368s-.315.397-.7.394c-.598-.005-.613-.063-.1-.394s.498-.389-.1-.394c-.486-.004-.7.307-.7 1.018 0 .635-.165.921-.435.754-.239-.147-.353-.582-.253-.965.171-.65-.659-.7-12.565-.744-9.777-.036-12.761.067-12.808.442-.182 1.458-.165 1.746.135 2.365.19.391.159.78-.073.923-.221.137-.401-.122-.401-.575 0-.453-.225-.838-.5-.856-.355-.022-.342-.094.045-.248.461-.183.461-.272 0-.568-.453-.293-.444-.418.055-.746.33-.217.42-.41.2-.43a14.63 14.63 0 0 1-1.079-.168c-.571-.11-.605-.011-.21.62.366.588.352.863-.066 1.262-.441.421-.487.353-.263-.39.201-.666.109-.9-.355-.9-.345 0-.641.225-.659.5-.025.4-.072.4-.233 0-.111-.275-.502-.503-.868-.506-.577-.005-.586-.059-.067-.394.424-.274-.105-.388-1.8-.388-1.32 0-2.195.132-1.944.294.33.213.302.436-.1.81-.462.428-.556.377-.556-.3 0-1.006-6.034-1.22-7.3-.259-1.121.85-1.033 7.043.1 7.043.44 0 .8.103.8.229 0 .469-1.165 1.371-1.771 1.371-.346 0-.629.18-.629.4 0 .22-.291.4-.647.4-.449 0-.583-.244-.437-.8.178-.68.012-.8-1.099-.8-1.087 0-1.308.152-1.314.9-.014 1.898-.132 2.185-1.081 2.617-.538.245-1.348.374-1.8.287-.725-.139-.821.041-.816 1.519.004 1.191.114 1.506.378 1.089.71-1.123.896-.053.289 1.663-.335.949-.624 1.392-.641.985-.029-.673-.354-.727-3.612-.6-4.722.185-4.602.014-4.706 6.659-.047 3.014.013 5.258.132 4.985.168-.383.349-.366.786.071.798.798.706 1.123-.232.825-.661-.21-.8-.072-.8.797 0 .598.172.944.4.803.22-.136.4-.057.4.176 0 .233-.18.424-.4.424-.586 0-.489 1.194.1 1.232.4.025.4.072 0 .233-1.171.473-.236 3.735 1.071 3.735.236 0 .429.18.429.4 0 .22-.45.4-1 .4-.8 0-1 .2-1 1 0 .78.198.993.9.968.495-.017.675-.122.4-.233-.696-.281-.627-.935.1-.935.526 0 .672.382.574 1.5-.015.165-.285.247-.6.182-.316-.064-.574.161-.574.5 0 .34.135.631.3.648.165.016.705.105 1.2.197.738.138.9-.012.9-.83 0-.548.163-.997.363-.997.199 0 .268-.36.153-.8-.115-.44-.458-.8-.763-.8-.304 0-.553-.36-.553-.8 0-1.241.548-.948 1.247.668.571 1.319.574 1.624.032 3.004-.609 1.549-.365 2.607.35 1.516.272-.415.323-.206.172.712-.216 1.325.648 1.92 1.162.8.126-.275.143-.14.038.3-.153.638.011.8.81.8.878 0 .99-.158.914-1.286-.048-.707.046-1.418.207-1.579.161-.162.26.728.219 1.978-.065 1.987-.141 2.185-.612 1.579-.508-.652-.574-.647-1.139.084-.524.679-.6.691-.6.1 0-.784-.66-.912-.913-.176-.095.275-.121.171-.059-.232.073-.471-.076-.659-.419-.527-.368.142-.5-.095-.426-.768.059-.535-.034-.973-.205-.973-.666 0-1.578.504-1.578.871 0 1.826-1.171 1.31-1.279-.564-.172-2.996-.216 5.794-.272 54.793L204.8 338H154V154h42.4v11.971c0 10.35.085 12.057.629 12.6 1.053 1.054 14.385.924 14.957-.145.523-.978.546-7.514.027-7.693-.856-.294.297-1.081 1.944-1.327 1.63-.243 1.736-.204 1.534.567-.268 1.024 4.992 1.295 5.589.287.176-.296 1.206-.657 2.288-.801 2.646-.353 4.115-1.785 4.472-4.359.145-1.045.399-1.9.565-1.9.166 0 .425-.405.575-.9.166-.545.355-.703.48-.4.362.876 1.424.596 1.14-.3-.146-.459-.072-.8.173-.8.235 0 .43.225.433.5.004.336.103.359.3.071.516-.754 1.694-1.003 1.694-.358 0 .323-.18.587-.4.587-.22 0-.4.18-.4.4 0 .453 9.982.491 11.6.044.614-.17 1.049-.618 1.128-1.16.07-.486.295-.884.5-.884.205 0 .372-1.35.372-3 0-2.13-.145-3.002-.5-3.006-.352-.004-.332-.112.067-.365.335-.212.959-.209 1.527.007 1.463.556 2.722.083 2.816-1.058.052-.626-.128-.978-.5-.978-1.035 0-1.495-1.423-.485-1.499.667-.051.732.017.282.295-.884.546-.338.811 2.14 1.04 2.175.201 2.916-.24 1.978-1.177-.387-.387-.455-1.859-.086-1.859.168 0 .363.405.433.9m34.375 1.6c.026.495.022 1.111-.01 1.369-.032.257.248.527.623.6.374.072-.522.144-1.99.16-2.272.025-2.67-.074-2.67-.66 0-.575.315-.667 1.9-.552 1.045.076 1.673.042 1.395-.075-1.162-.488-1.384-1.742-.309-1.742.771 0 1.025.216 1.061.9m-40.447-.147c0 .195-.347.444-.77.555-.54.141-.707.036-.557-.353.232-.606 1.327-.772 1.327-.202m19.2.847l13 .217-12.9.091c-10.001.071-12.901.204-12.906.592-.004.339-.143.307-.431-.1-.233-.33-.365-.376-.293-.102.1.383 3.365.522 14.13.6 7.7.056 13.595.044 13.1-.026-1.059-.15-1.217-.859-.2-.9.599-.024.584-.078-.1-.372-.44-.189-6.56-.315-13.6-.28l-12.8.063 13 .217m-16.4.767c0 .201.225.457.5.568.4.161.4.208 0 .233-1.393.088-.255.703 1.24.67 1.634-.036 1.598-.984-.04-1.025-.275-.007-.5-.193-.5-.413 0-.22-.27-.4-.6-.4-.33 0-.6.165-.6.367M113.2 246v92H62.4V154h50.8v92m112.4-90.233c0 .092-.109.452-.243.8-.343.894-.957.787-.957-.167 0-.444.267-.8.6-.8.33 0 .6.075.6.167m-2 1.861c0 .963-.783 1.029-.846.072-.044-.661-.057-.661-.231.005-.101.388-.37.59-.598.449-.228-.141-.557-.026-.731.256-.205.331-.295.172-.256-.449.082-1.285 2.662-1.608 2.662-.333m88.256 2.003c.052 1.254.041 1.268-.136.17-.106-.659-.401-1.348-.656-1.53-.313-.224-.269-.28.136-.171.369.1.622.688.656 1.531m-89.135.037c-.741.643-.796.838-.32 1.133.317.195.421.5.233.677-.189.177-.424.097-.522-.178-.245-.685-.912-.632-.912.072 0 .315.315.648.7.739.537.129.515.158-.096.128-.964-.047-1.32-1.415-.523-2.013.313-.234.686-.738.829-1.119.159-.424.502-.601.883-.454.525.201.482.362-.272 1.015m9.15-.587c-.482.125-.645.41-.479.842.138.359.132.535-.012.39-.144-.144-.687-.1-1.207.097-.627.239-1.037.209-1.221-.087-.167-.271-.094-.335.186-.161.27.167.462.038.462-.311 0-.327.405-.673.9-.769 1.225-.236 2.282-.236 1.371-.001m-6.514 1.158c.557.214.559.302.014.847-.335.335-.73.488-.878.34-.149-.148-.024-.421.277-.607.429-.266.384-.38-.212-.532-.417-.107-.548-.215-.291-.241.257-.025.748.061 1.09.193m89.959 2.161c-.115.44-.368.8-.563.8-.541 0-.419-1.107.147-1.335.275-.111.528-.216.563-.233.034-.018-.032.328-.147.768m-96.749 2.143c-.233.605-.967.94-.967.44 0-.285.968-1.332 1.109-1.2.061.056-.004.398-.142.76m1.833.257c0 .22-.27.4-.6.4-.33 0-.6-.18-.6-.4 0-.22.27-.4.6-.4.33 0 .6.18.6.4m0 1.6c0 .382-1.237.896-1.507.627-.105-.106-.086-.467.042-.803.231-.602 1.465-.454 1.465.176m92.8-.2c0 .33.18.6.4.6.22 0 .4-.27.4-.6 0-.33-.18-.6-.4-.6-.22 0-.4.27-.4.6m5.2.243c0 .196-.255.357-.567.357-.311 0-.626.174-.7.387-.085.247-.351.249-.733.006-.512-.325-.497-.382.1-.387.385-.003.7-.27.7-.593 0-.358.235-.498.6-.358.33.127.6.391.6.588M215.6 168c0 .169-.321.391-.714.493-.479.126-.715-.037-.715-.493s.236-.619.715-.493c.393.102.714.324.714.493m3.377.383c-.245.245-.6.245-.98 0-.529-.339-.529-.427 0-.766.733-.471 1.566.18.98.766m94.303.584c.12 1.632.121 1.633 1.92 1.743 1.329.081 1.643.003 1.2-.3-.449-.307-.479-.488-.12-.721.322-.209.092-.483-.7-.834-.649-.287-1.18-.747-1.18-1.022s-.279-.5-.62-.5c-.478 0-.592.374-.5 1.634m-95.513-.324c1.024.393.727.824-.567.824-1.223 0-1.604-.437-.7-.802.275-.111.53-.216.567-.233.037-.018.352.077.7.211M317.2 170.2c0 .33.27.6.6.6.33 0 .6-.27.6-.6 0-.33-.27-.6-.6-.6-.33 0-.6.27-.6.6m11.708 1.77c.141.54.036.707-.353.557-.305-.117-.555-.463-.555-.77 0-.831.676-.673.908.213M267.2 196.8c0 .22.27.4.6.4.33 0 .6-.18.6-.4 0-.22-.27-.4-.6-.4-.33 0-.6.18-.6.4m-39.592 1.39c-.278.336-.799.599-1.157.585-.441-.018-.36-.143.249-.387.495-.199.9-.578.9-.842s.116-.364.257-.222c.141.141.029.531-.249.866m11.992-.59c0 .22-.27.4-.6.4-.33 0-.6-.18-.6-.4 0-.22.27-.4.6-.4.33 0 .6.18.6.4m23.685 1.6c.121.819.008 1.2-.354 1.2-.323 0-.531-.47-.531-1.2 0-.66.16-1.2.355-1.2.195 0 .433.54.53 1.2m3.015-.548c1.01.271 1.224.948.3.948-.33 0-.6-.167-.6-.372s-.405-.45-.9-.546c-.495-.095-.63-.195-.3-.222.33-.027 1.005.059 1.5.192m-31.9 2.148c0 .22-.27.4-.6.4-.33 0-.6-.18-.6-.4 0-.22.27-.4.6-.4.33 0 .6.18.6.4m-10.622 1.312c-.132.344-.505.728-.83.852-.605.233-.422-.282.434-1.224.534-.587.704-.429.396.372m-10.311 2.955c-.791.79-.255 2.933.733 2.933 1.049 0 1.398-.951.5-1.363-.275-.126-.095-.129.4-.006.758.188.9.06.9-.804 0-1.011-1.756-1.538-2.533-.76m5.333 1.12c0 .358-.235.498-.6.358-.33-.127-.6-.391-.6-.588 0-.196.27-.357.6-.357.33 0 .6.264.6.587m59.963.959c-.251.083-.612-.095-.803-.397-.604-.953-.39-1.167.449-.448.49.419.63.753.354.845m-59.569.554c.003-.275.366-.5.806-.5 1.07 0 1.022.649-.069.934-.997.261-1.534.029-1.525-.658.004-.286.161-.237.394.124.258.4.39.433.394.1m-2.394 3.171c0 .213-.274.66-.609.995-.546.546-.6.485-.518-.584.083-1.09 1.127-1.471 1.127-.411m62 1.529c0 .44-.18.8-.4.8-.22 0-.4-.36-.4-.8 0-.44.18-.8.4-.8.22 0 .4.36.4.8m-5.2.444c0 .56-2.292.416-2.512-.158-.143-.374.173-.472 1.157-.357.745.087 1.355.319 1.355.515m12.8 5.956c0 .22.27.4.6.4.33 0 .6-.18.6-.4 0-.22-.27-.4-.6-.4-.33 0-.6.18-.6.4m0 1.4c0 .33.27.6.6.6.33 0 .6-.27.6-.6 0-.33-.27-.6-.6-.6-.33 0-.6.27-.6.6m-.769 4.5c.209 2.034.114 2.777-.331 2.606-.275-.105-.5-.532-.5-.949 0-.416.225-.771.5-.789.4-.025.4-.072 0-.233-.275-.111-.5-.367-.5-.568 0-.437.786-.5.831-.067m-.863 3.824c-.02.3-.111.275-.248-.069-.18-.453-.273-.455-.547-.012-.181.294-.469.394-.64.224-.364-.364.679-1.107 1.148-.817.175.108.305.412.287.674m-4.368.076c0 .33-.18.6-.4.6-.22 0-.4-.27-.4-.6 0-.33.18-.6.4-.6.22 0 .4.27.4.6m-73.2 1.59c0 .299.225.624.5.722.275.098.362.326.193.507-.168.18-.511.123-.761-.127-.312-.312-.687-.33-1.193-.059-.558.298-.739.255-.739-.174 0-.314.315-.545.7-.515.438.035.679-.205.645-.64-.03-.382.105-.597.3-.476s.355.464.355.762m74.813 8.21c.213 0 .387.18.387.4 0 .22-.379.4-.843.4-.604 0-.774-.179-.6-.633.134-.348.282-2.643.329-5.1l.086-4.467.127 4.7c.072 2.677.293 4.7.514 4.7m-72.284-4.354c.259.025.831.028 1.271.007.754-.038.757-.022.051.276-.704.297-.708.357-.071.993.494.494.534.686.149.706-.291.016-.169.194.271.397l.8.368-.8-.102c-.44-.056-.822-.324-.85-.596a39.872 39.872 0 0 0-.1-.895c-.027-.22-.301-.4-.607-.4-.568 0-1.08-.89-.997-1.733.026-.257.129-.152.23.233.1.385.394.721.653.746m1.532 4.354c.187 0 .339.18.339.4 0 .22-.33.4-.733.4-.559 0-.734-.306-.734-1.284 0-1.175.034-1.209.395-.4.217.486.547.884.733.884m-5.661.4c0 .44.18.8.4.8.22 0 .4-.36.4-.8 0-.44-.18-.8-.4-.8-.22 0-.4.36-.4.8m74.842.1c.024.275.008 1.015-.034 1.645-.046.676.086 1.044.321.899.587-.363 1.671.155 1.671.799 0 .788-.662.692-.986-.143-.253-.653-.309-.649-.838.071-.312.424-.699.639-.86.478-.161-.161-.028-.46.296-.665.398-.252.427-.374.088-.378-.316-.004-.5-.596-.5-1.606 0-1.417.734-2.375.842-1.1m-73.463 5.2c-.136 1.498-.074 1.928.215 1.5.361-.533.455-.533.844 0 .373.511.405.498.217-.087-.121-.378-.048-.794.162-.924.211-.13.383.224.383.787 0 .871-.179 1.024-1.2 1.024-1.105 0-1.2-.111-1.2-1.4 0-.77-.18-1.4-.4-1.4-.22 0-.4-.36-.4-.8 0-.528.267-.8.785-.8.705 0 .766.215.594 2.1m79.271-.85c-.137.688-.25 1.678-.25 2.2 0 .819-.193.95-1.4.95-1.239 0-1.4-.119-1.4-1.033 0-.654.184-.969.5-.859.275.096.447.516.383.933-.097.633-.048.659.294.159.277-.404.413-.437.417-.1.003.275.186.5.406.5.586 0 .489-1.194-.1-1.232-.4-.025-.4-.072 0-.233.594-.239.676-1.335.1-1.335-.22 0-.4-.27-.4-.6 0-.345.361-.6.85-.6.739 0 .817.164.6 1.25" fill="#fff"/></g></svg>